# xmcd
#
# Track frame offsets: 
#        150
#        12680
#        29332
#        47083
#        61612
#        90671
#        108759
#        124072
#        148504
#        224813
#        238538
#        253068
#        288205
#        331999
#
# Disc length: 4655 seconds
#
# Revision: 2
# Processed by: cddbd v1.5.2PL0 Copyright (c) Steve Scherf et al.
# Submitted via: ExactAudioCopy v0.99pb4
#
DISCID=c9122d0e
DTITLE=Various Artist - Dietrich Schwanitz - Alles, was man hören mus
DTITLE=s [CD10) - USA
DYEAR=2006
DGENRE=Classical
TTITLE0=Traditional - Barbara Conrad - I want Jesus to Walk with Me, T
TTITLE0=he Convent Avenue Concert
TTITLE1=Traditional - Choir and Ensemble - Po' Moner got a Home at Las'
TTITLE2=Traditional - Klezperanto Ensemble - Rushin' Sher (1930)
TTITLE3=Traditional - Klezperanto Ensemble - I Drink to Forget (Greek 
TTITLE3=trad.)
TTITLE4=Traditional - Klezperanto Ensemble - Kosher Kabana, Shepherd's
TTITLE4=Dream
TTITLE5=Traditional - Klezperanto Ensemble - Skotchne (1936-7)
TTITLE6=John Philip Sousa - Slowakisches Radio-Sinfonie-Orchester Ltg.
TTITLE6=Keith Brion - Marsch: The Stars and Stripes Forever
TTITLE7=Ferde Grofé - Bournemouth Symphony Orch. Ltg. William T. Strom
TTITLE7=berg - Grand Canyon Suite, Sonnenaufgang
TTITLE8=George Gershwin - Slowakische Philharmonie Ltg. Richard Hayman
TTITLE8=Rhapsody in Blue
TTITLE9=Duke Ellington - Duke Ellington's Famous Orchestra - Stormy We
TTITLE9=ather
TTITLE10=Duke Ellington - Duke Ellington's Famous Orchestra - Sophisti
TTITLE10=cated Lady
TTITLE11=Samuel Barber - Royal Scottish National Orch. Ltg. Marin Also
TTITLE11=p - Adagio op. 11 für Streicher
TTITLE12=Virgil Thomson - New Zealand Symphony Orchestra Ltg. James Se
TTITLE12=dares - Pilger und Pioniere, Konzertstück
TTITLE13=Traditional - Klezperanto Ensemble - Diddley Shmiddley, Klein
TTITLE13=e Prinzessin'
EXTD=YEAR: 2001
EXTT0=
EXTT1=
EXTT2=
EXTT3=
EXTT4=
EXTT5=
EXTT6=
EXTT7=
EXTT8=
EXTT9=
EXTT10=
EXTT11=
EXTT12=
EXTT13=
PLAYORDER=
